<?xml version="1.0" encoding="UTF-8"?>
<!DOCTYPE svg PUBLIC "-//W3C//DTD SVG 1.1//EN" "http://www.w3.org/Graphics/SVG/1.1/DTD/svg11.dtd">
<svg xmlns="http://www.w3.org/2000/svg" version="1.1" width="257px" height="257px" style="shape-rendering:geometricPrecision; text-rendering:geometricPrecision; image-rendering:optimizeQuality; fill-rule:evenodd; clip-rule:evenodd" xmlns:xlink="http://www.w3.org/1999/xlink">
<g><path style="opacity:1" fill="#fefefe" d="M -0.5,-0.5 C 2.5,-0.5 5.5,-0.5 8.5,-0.5C 17.2105,20.6254 23.8772,42.2921 28.5,64.5C 6.66686,100.355 3.66686,137.689 19.5,176.5C 21.4383,180.043 23.1049,183.71 24.5,187.5C 18.1156,210.331 9.78224,232.331 -0.5,253.5C -0.5,168.833 -0.5,84.1667 -0.5,-0.5 Z"/></g>
<g><path style="opacity:1" fill="#f8f8f5" d="M 8.5,-0.5 C 91.1667,-0.5 173.833,-0.5 256.5,-0.5C 256.5,85.1667 256.5,170.833 256.5,256.5C 170.833,256.5 85.1667,256.5 -0.5,256.5C -0.5,255.5 -0.5,254.5 -0.5,253.5C 9.78224,232.331 18.1156,210.331 24.5,187.5C 56.0709,236.772 100.738,255.605 158.5,244C 189.732,235.235 213.732,217.068 230.5,189.5C 231.674,188.486 232.34,187.153 232.5,185.5C 246.475,159.048 250.308,131.048 244,101.5C 236.824,75.1192 222.658,53.4525 201.5,36.5C 183.671,22.4302 163.338,14.0969 140.5,11.5C 128.076,11.0831 115.743,11.7497 103.5,13.5C 71.8429,20.82 46.8429,37.82 28.5,64.5C 23.8772,42.2921 17.2105,20.6254 8.5,-0.5 Z"/></g>
<g><path style="opacity:1" fill="#afaba2" d="M 140.5,11.5 C 163.338,14.0969 183.671,22.4302 201.5,36.5C 201.44,37.0431 201.107,37.3764 200.5,37.5C 194.944,35.6305 189.277,34.2972 183.5,33.5C 183.5,34.5 183.5,35.5 183.5,36.5C 182.167,36.5 180.833,36.5 179.5,36.5C 179.5,37.5 179.5,38.5 179.5,39.5C 178.167,39.5 176.833,39.5 175.5,39.5C 175.167,35.5 174.833,35.5 174.5,39.5C 171.724,39.0889 171.057,39.9223 172.5,42C 172.095,42.9454 171.428,43.6121 170.5,44C 172.667,45.5 174.5,47.3333 176,49.5C 178.064,48.4086 180.231,48.2419 182.5,49C 183.337,50.0113 183.67,51.1779 183.5,52.5C 184.675,52.281 185.675,52.6143 186.5,53.5C 183.893,54.3184 181.226,54.8184 178.5,55C 180.167,55.3333 181.833,55.6667 183.5,56C 182.542,57.1475 182.875,58.1475 184.5,59C 189.563,60.3285 189.229,61.3285 183.5,62C 184.966,62.6355 186.3,63.4688 187.5,64.5C 188.891,63.3554 190.224,63.3554 191.5,64.5C 190.675,65.3857 189.675,65.719 188.5,65.5C 188.5,66.5 188.5,67.5 188.5,68.5C 189.833,68.5 191.167,68.5 192.5,68.5C 192.336,71.1873 192.503,73.854 193,76.5C 194.395,75.1854 195.395,75.5188 196,77.5C 196.483,76.552 196.649,75.552 196.5,74.5C 197.5,74.5 198.5,74.5 199.5,74.5C 200.329,79.1538 201.163,83.8204 202,88.5C 203.049,90.1066 204.549,90.7733 206.5,90.5C 206.357,92.2624 206.691,93.9291 207.5,95.5C 206.271,96.2811 204.938,96.7811 203.5,97C 205.898,98.0181 208.231,99.1847 210.5,100.5C 210.709,101.086 211.043,101.586 211.5,102C 210.167,102.333 208.833,102.667 207.5,103C 209.997,103.412 211.997,104.578 213.5,106.5C 212.619,107.971 211.286,108.804 209.5,109C 210.892,111.228 212.892,112.394 215.5,112.5C 215.579,113.93 215.246,115.264 214.5,116.5C 215.833,118.5 217.5,120.167 219.5,121.5C 214.167,122.833 214.167,124.167 219.5,125.5C 220.167,126.5 220.833,127.5 221.5,128.5C 220.975,129.192 220.308,129.692 219.5,130C 220.711,131.113 220.711,132.28 219.5,133.5C 221.5,134.167 223.5,134.833 225.5,135.5C 223.625,136.969 223.625,138.802 225.5,141C 223.845,143.507 223.011,146.341 223,149.5C 222.25,150.126 221.416,150.626 220.5,151C 222.592,151.953 222.925,153.286 221.5,155C 222.574,155.739 223.241,156.739 223.5,158C 222.305,159.533 222.305,161.033 223.5,162.5C 222.91,163.799 221.91,164.632 220.5,165C 221.328,165.915 222.328,166.581 223.5,167C 222.833,167.333 222.167,167.667 221.5,168C 221.955,170.312 222.955,172.312 224.5,174C 221.452,175.73 220.786,178.23 222.5,181.5C 224.48,180.617 226.48,180.783 228.5,182C 227.672,182.915 226.672,183.581 225.5,184C 226,184.5 226.5,185 227,185.5C 228.943,184.193 230.777,184.193 232.5,185.5C 232.34,187.153 231.674,188.486 230.5,189.5C 226.371,187.121 222.037,185.121 217.5,183.5C 218.028,182.153 218.195,180.819 218,179.5C 215.468,178.994 213.302,177.827 211.5,176C 214.017,173.806 213.684,171.806 210.5,170C 211.747,168.542 211.747,167.042 210.5,165.5C 211.853,164.476 212.52,163.143 212.5,161.5C 210.801,161.66 209.134,161.494 207.5,161C 208.126,160.25 208.626,159.416 209,158.5C 209.893,159.711 210.726,159.711 211.5,158.5C 210.289,157.28 210.289,156.113 211.5,155C 209.246,153.946 208.913,152.446 210.5,150.5C 209.311,149.571 207.978,149.238 206.5,149.5C 207.15,145.393 206.15,141.893 203.5,139C 203.721,137.201 204.054,135.368 204.5,133.5C 202.615,132.803 202.282,131.803 203.5,130.5C 201.914,128.827 201.247,126.827 201.5,124.5C 197.843,124.88 196.843,123.547 198.5,120.5C 198,118.5 197.5,116.5 197,114.5C 196,113.167 195,113.167 194,114.5C 193.51,113.207 193.343,111.873 193.5,110.5C 190.466,110.391 189.466,109.057 190.5,106.5C 187.833,105.167 187.833,103.833 190.5,102.5C 188.446,100.744 186.279,100.41 184,101.5C 184.703,98.4929 184.369,95.4929 183,92.5C 181.989,91.6634 180.822,91.33 179.5,91.5C 177.588,86.5885 175.088,82.5885 172,79.5C 171.676,72.8754 170.509,66.5421 168.5,60.5C 168.167,60.5 167.833,60.5 167.5,60.5C 167.666,55.8215 167.499,51.1548 167,46.5C 161.292,37.6546 155.126,29.3213 148.5,21.5C 145.87,18.1722 143.203,14.8388 140.5,11.5 Z"/></g>
<g><path style="opacity:1" fill="#7e5030" d="M 133.5,23.5 C 126.397,21.4487 119.064,20.9487 111.5,22C 107.679,23.8324 103.679,25.1657 99.5,26C 96.462,28.7026 93.7954,31.7026 91.5,35C 89.8659,35.4935 88.1992,35.6602 86.5,35.5C 86.6602,37.1992 86.4935,38.8659 86,40.5C 83.6687,45.5938 81.502,50.5938 79.5,55.5C 79.4511,52.6257 79.7844,49.7923 80.5,47C 82.4616,43.6018 84.1282,40.1018 85.5,36.5C 85.427,34.9731 86.0937,33.9731 87.5,33.5C 91.3322,29.8362 95.3322,26.3362 99.5,23C 102.365,22.8171 105.031,22.3171 107.5,21.5C 115.452,20.3968 123.452,20.2302 131.5,21C 132.381,21.7083 133.047,22.5416 133.5,23.5 Z"/></g>
<g><path style="opacity:1" fill="#15100c" d="M 140.5,11.5 C 143.203,14.8388 145.87,18.1722 148.5,21.5C 148.92,23.0936 149.586,24.5936 150.5,26C 150.43,26.7648 150.097,27.2648 149.5,27.5C 147.833,26.8333 146.167,26.1667 144.5,25.5C 143.71,24.2058 142.71,23.0391 141.5,22C 132.058,18.9557 122.391,17.9557 112.5,19C 110.256,19.0496 108.589,19.8829 107.5,21.5C 98.1124,20.8746 91.4457,24.8746 87.5,33.5C 86.0937,33.9731 85.427,34.9731 85.5,36.5C 80.443,40.9511 77.7764,46.6177 77.5,53.5C 76.8934,58.4277 76.0601,63.4277 75,68.5C 74.5006,62.8431 74.3339,57.1764 74.5,51.5C 79.6232,35.3755 89.2898,22.7088 103.5,13.5C 115.743,11.7497 128.076,11.0831 140.5,11.5 Z"/></g>
<g><path style="opacity:1" fill="#432514" d="M 144.5,25.5 C 141.034,23.9084 137.367,23.2417 133.5,23.5C 133.047,22.5416 132.381,21.7083 131.5,21C 123.452,20.2302 115.452,20.3968 107.5,21.5C 108.589,19.8829 110.256,19.0496 112.5,19C 122.391,17.9557 132.058,18.9557 141.5,22C 142.71,23.0391 143.71,24.2058 144.5,25.5 Z"/></g>
<g><path style="opacity:1" fill="#462b1a" d="M 107.5,21.5 C 105.031,22.3171 102.365,22.8171 99.5,23C 95.3322,26.3362 91.3322,29.8362 87.5,33.5C 91.4457,24.8746 98.1124,20.8746 107.5,21.5 Z"/></g>
<g><path style="opacity:1" fill="#bf7f4f" d="M 137.5,52.5 C 137.167,52.5 136.833,52.5 136.5,52.5C 136.167,51.8333 135.833,51.1667 135.5,50.5C 136.708,49.7659 138.041,49.4326 139.5,49.5C 139.264,47.0268 137.931,45.3601 135.5,44.5C 134.571,43.3112 134.238,41.9778 134.5,40.5C 132.571,40.7692 130.905,40.2692 129.5,39C 131.5,38.6667 133.5,38.3333 135.5,38C 136.38,36.6439 136.714,35.1439 136.5,33.5C 132.734,32.2313 129.067,30.7313 125.5,29C 123.667,28.8333 121.833,28.6667 120,28.5C 113.464,30.1834 106.964,32.0167 100.5,34C 98.446,36.5441 96.1127,38.8774 93.5,41C 94.3081,41.3076 94.9747,41.8076 95.5,42.5C 92.3267,45.1294 91.8267,48.1294 94,51.5C 97.4842,50.1078 100.984,49.7745 104.5,50.5C 101.833,51.1667 99.1667,51.8333 96.5,52.5C 95.791,53.404 94.791,53.7373 93.5,53.5C 91.4099,53.5499 90.0766,52.5499 89.5,50.5C 90.2537,47.223 90.7537,43.8897 91,40.5C 93.3779,35.3259 97.2112,31.9925 102.5,30.5C 102.5,29.5 102.5,28.5 102.5,27.5C 106.963,25.0712 111.797,23.7379 117,23.5C 124.866,23.5527 132.366,25.0527 139.5,28C 141.991,31.4903 144.825,34.657 148,37.5C 149.904,40.9231 150.737,44.5898 150.5,48.5C 145.298,47.7204 140.964,49.0537 137.5,52.5 Z"/></g>
<g><path style="opacity:1" fill="#9d663d" d="M 133.5,23.5 C 137.367,23.2417 141.034,23.9084 144.5,25.5C 145.782,28.6168 147.949,30.9501 151,32.5C 152.209,36.7031 153.876,40.7031 156,44.5C 156.822,47.1168 157.322,49.7835 157.5,52.5C 155.833,52.5 154.167,52.5 152.5,52.5C 147.545,51.2798 142.545,51.2798 137.5,52.5C 140.964,49.0537 145.298,47.7204 150.5,48.5C 150.737,44.5898 149.904,40.9231 148,37.5C 144.825,34.657 141.991,31.4903 139.5,28C 132.366,25.0527 124.866,23.5527 117,23.5C 111.797,23.7379 106.963,25.0712 102.5,27.5C 102.5,28.5 102.5,29.5 102.5,30.5C 97.2112,31.9925 93.3779,35.3259 91,40.5C 90.7537,43.8897 90.2537,47.223 89.5,50.5C 90.0766,52.5499 91.4099,53.5499 93.5,53.5C 92.8333,54.8333 91.8333,55.8333 90.5,56.5C 87.6622,58.6931 84.3288,60.0264 80.5,60.5C 79.5481,58.9547 79.2148,57.288 79.5,55.5C 81.502,50.5938 83.6687,45.5938 86,40.5C 86.4935,38.8659 86.6602,37.1992 86.5,35.5C 88.1992,35.6602 89.8659,35.4935 91.5,35C 93.7954,31.7026 96.462,28.7026 99.5,26C 103.679,25.1657 107.679,23.8324 111.5,22C 119.064,20.9487 126.397,21.4487 133.5,23.5 Z"/></g>
<g><path style="opacity:1" fill="#cf8d5a" d="M 135.5,50.5 C 127.856,49.52 120.189,49.3533 112.5,50C 111.944,50.3826 111.611,50.8826 111.5,51.5C 109.139,51.3259 106.806,50.9926 104.5,50.5C 100.984,49.7745 97.4842,50.1078 94,51.5C 91.8267,48.1294 92.3267,45.1294 95.5,42.5C 94.9747,41.8076 94.3081,41.3076 93.5,41C 96.1127,38.8774 98.446,36.5441 100.5,34C 106.964,32.0167 113.464,30.1834 120,28.5C 121.833,28.6667 123.667,28.8333 125.5,29C 129.067,30.7313 132.734,32.2313 136.5,33.5C 136.714,35.1439 136.38,36.6439 135.5,38C 133.5,38.3333 131.5,38.6667 129.5,39C 130.905,40.2692 132.571,40.7692 134.5,40.5C 134.238,41.9778 134.571,43.3112 135.5,44.5C 137.931,45.3601 139.264,47.0268 139.5,49.5C 138.041,49.4326 136.708,49.7659 135.5,50.5 Z"/></g>
<g><path style="opacity:1" fill="#2c231b" d="M 148.5,21.5 C 155.126,29.3213 161.292,37.6546 167,46.5C 167.499,51.1548 167.666,55.8215 167.5,60.5C 167.768,62.099 167.434,63.4324 166.5,64.5C 165.833,64.5 165.5,64.1667 165.5,63.5C 165.421,61.3337 164.754,59.3337 163.5,57.5C 164.399,51.909 163.399,46.5756 160.5,41.5C 158.459,40.293 157.126,38.6263 156.5,36.5C 154.573,33.2327 152.239,30.2327 149.5,27.5C 150.097,27.2648 150.43,26.7648 150.5,26C 149.586,24.5936 148.92,23.0936 148.5,21.5 Z"/></g>
<g><path style="opacity:1" fill="#754f32" d="M 144.5,25.5 C 146.167,26.1667 147.833,26.8333 149.5,27.5C 152.239,30.2327 154.573,33.2327 156.5,36.5C 156.343,37.8734 156.51,39.2068 157,40.5C 158.385,41.5505 159.385,42.8839 160,44.5C 160.212,47.3315 160.379,49.9982 160.5,52.5C 157.691,53.8003 155.024,53.8003 152.5,52.5C 154.167,52.5 155.833,52.5 157.5,52.5C 157.322,49.7835 156.822,47.1168 156,44.5C 153.876,40.7031 152.209,36.7031 151,32.5C 147.949,30.9501 145.782,28.6168 144.5,25.5 Z"/></g>
<g><path style="opacity:1" fill="#b6b2aa" d="M 201.5,36.5 C 222.658,53.4525 236.824,75.1192 244,101.5C 250.308,131.048 246.475,159.048 232.5,185.5C 230.777,184.193 228.943,184.193 227,185.5C 226.5,185 226,184.5 225.5,184C 226.672,183.581 227.672,182.915 228.5,182C 226.48,180.783 224.48,180.617 222.5,181.5C 220.786,178.23 221.452,175.73 224.5,174C 222.955,172.312 221.955,170.312 221.5,168C 222.167,167.667 222.833,167.333 223.5,167C 222.328,166.581 221.328,165.915 220.5,165C 221.91,164.632 222.91,163.799 223.5,162.5C 222.305,161.033 222.305,159.533 223.5,158C 223.241,156.739 222.574,155.739 221.5,155C 222.925,153.286 222.592,151.953 220.5,151C 221.416,150.626 222.25,150.126 223,149.5C 223.011,146.341 223.845,143.507 225.5,141C 223.625,138.802 223.625,136.969 225.5,135.5C 223.5,134.833 221.5,134.167 219.5,133.5C 220.711,132.28 220.711,131.113 219.5,130C 220.308,129.692 220.975,129.192 221.5,128.5C 220.833,127.5 220.167,126.5 219.5,125.5C 214.167,124.167 214.167,122.833 219.5,121.5C 217.5,120.167 215.833,118.5 214.5,116.5C 215.246,115.264 215.579,113.93 215.5,112.5C 212.892,112.394 210.892,111.228 209.5,109C 211.286,108.804 212.619,107.971 213.5,106.5C 211.997,104.578 209.997,103.412 207.5,103C 208.833,102.667 210.167,102.333 211.5,102C 211.043,101.586 210.709,101.086 210.5,100.5C 208.231,99.1847 205.898,98.0181 203.5,97C 204.938,96.7811 206.271,96.2811 207.5,95.5C 206.691,93.9291 206.357,92.2624 206.5,90.5C 204.549,90.7733 203.049,90.1066 202,88.5C 201.163,83.8204 200.329,79.1538 199.5,74.5C 198.5,74.5 197.5,74.5 196.5,74.5C 196.649,75.552 196.483,76.552 196,77.5C 195.395,75.5188 194.395,75.1854 193,76.5C 192.503,73.854 192.336,71.1873 192.5,68.5C 191.167,68.5 189.833,68.5 188.5,68.5C 188.5,67.5 188.5,66.5 188.5,65.5C 189.675,65.719 190.675,65.3857 191.5,64.5C 190.224,63.3554 188.891,63.3554 187.5,64.5C 186.3,63.4688 184.966,62.6355 183.5,62C 189.229,61.3285 189.563,60.3285 184.5,59C 182.875,58.1475 182.542,57.1475 183.5,56C 181.833,55.6667 180.167,55.3333 178.5,55C 181.226,54.8184 183.893,54.3184 186.5,53.5C 185.675,52.6143 184.675,52.281 183.5,52.5C 183.67,51.1779 183.337,50.0113 182.5,49C 180.231,48.2419 178.064,48.4086 176,49.5C 174.5,47.3333 172.667,45.5 170.5,44C 171.428,43.6121 172.095,42.9454 172.5,42C 171.057,39.9223 171.724,39.0889 174.5,39.5C 174.833,35.5 175.167,35.5 175.5,39.5C 176.833,39.5 178.167,39.5 179.5,39.5C 179.5,38.5 179.5,37.5 179.5,36.5C 180.833,36.5 182.167,36.5 183.5,36.5C 183.5,35.5 183.5,34.5 183.5,33.5C 189.277,34.2972 194.944,35.6305 200.5,37.5C 201.107,37.3764 201.44,37.0431 201.5,36.5 Z"/></g>
<g><path style="opacity:1" fill="#b88a66" d="M 104.5,50.5 C 106.806,50.9926 109.139,51.3259 111.5,51.5C 112.209,52.404 113.209,52.7373 114.5,52.5C 114.5,53.5 114.5,54.5 114.5,55.5C 117.975,55.9939 120.642,57.6605 122.5,60.5C 121.527,59.2086 120.527,59.2086 119.5,60.5C 117.658,58.8277 115.658,57.4944 113.5,56.5C 113.179,54.9519 112.179,54.2852 110.5,54.5C 106.119,52.7895 101.453,52.1228 96.5,52.5C 99.1667,51.8333 101.833,51.1667 104.5,50.5 Z"/></g>
<g><path style="opacity:1" fill="#5e3f28" d="M 156.5,36.5 C 157.126,38.6263 158.459,40.293 160.5,41.5C 163.399,46.5756 164.399,51.909 163.5,57.5C 164.754,59.3337 165.421,61.3337 165.5,63.5C 164.167,62.5 162.833,61.5 161.5,60.5C 160.566,61.5676 160.232,62.901 160.5,64.5C 157.185,64.0283 154.851,62.195 153.5,59C 152.207,58.51 150.873,58.3433 149.5,58.5C 149.167,57.5 148.5,56.8333 147.5,56.5C 149.969,55.6829 152.635,55.1829 155.5,55C 149.294,54.2282 143.128,54.3949 137,55.5C 136.5,55.3333 136,55.1667 135.5,55C 136.381,54.2917 137.047,53.4584 137.5,52.5C 142.545,51.2798 147.545,51.2798 152.5,52.5C 155.024,53.8003 157.691,53.8003 160.5,52.5C 160.379,49.9982 160.212,47.3315 160,44.5C 159.385,42.8839 158.385,41.5505 157,40.5C 156.51,39.2068 156.343,37.8734 156.5,36.5 Z"/></g>
<g><path style="opacity:1" fill="#dea981" d="M 135.5,50.5 C 135.833,51.1667 136.167,51.8333 136.5,52.5C 131.579,54.762 126.912,57.4287 122.5,60.5C 120.642,57.6605 117.975,55.9939 114.5,55.5C 114.5,54.5 114.5,53.5 114.5,52.5C 113.209,52.7373 112.209,52.404 111.5,51.5C 111.611,50.8826 111.944,50.3826 112.5,50C 120.189,49.3533 127.856,49.52 135.5,50.5 Z"/></g>
<g><path style="opacity:1" fill="#4a2d1b" d="M 96.5,52.5 C 101.453,52.1228 106.119,52.7895 110.5,54.5C 104.299,56.0473 97.7987,57.3807 91,58.5C 89.3164,58.3166 89.1498,57.6499 90.5,56.5C 91.8333,55.8333 92.8333,54.8333 93.5,53.5C 94.791,53.7373 95.791,53.404 96.5,52.5 Z"/></g>
<g><path style="opacity:1" fill="#a2805b" d="M 136.5,52.5 C 136.833,52.5 137.167,52.5 137.5,52.5C 137.047,53.4584 136.381,54.2917 135.5,55C 136,55.1667 136.5,55.3333 137,55.5C 143.128,54.3949 149.294,54.2282 155.5,55C 152.635,55.1829 149.969,55.6829 147.5,56.5C 146.07,56.4208 144.736,56.7542 143.5,57.5C 142.395,59.6114 140.729,60.9447 138.5,61.5C 139.153,60.1932 139.82,58.8599 140.5,57.5C 137.106,56.7772 133.772,57.2772 130.5,59C 129.62,60.3561 129.286,61.8561 129.5,63.5C 131.806,63.0074 134.139,62.6741 136.5,62.5C 134.031,63.9082 131.697,65.5749 129.5,67.5C 129.158,66.6618 128.492,66.3284 127.5,66.5C 126.766,65.2921 126.433,63.9587 126.5,62.5C 124.833,62.5 123.167,62.5 121.5,62.5C 121.833,61.8333 122.167,61.1667 122.5,60.5C 126.912,57.4287 131.579,54.762 136.5,52.5 Z"/></g>
<g><path style="opacity:1" fill="#e6eae1" d="M 138.5,61.5 C 137.833,61.5 137.5,61.8333 137.5,62.5C 137.167,62.5 136.833,62.5 136.5,62.5C 134.139,62.6741 131.806,63.0074 129.5,63.5C 129.286,61.8561 129.62,60.3561 130.5,59C 133.772,57.2772 137.106,56.7772 140.5,57.5C 139.82,58.8599 139.153,60.1932 138.5,61.5 Z"/></g>
<g><path style="opacity:1" fill="#b47043" d="M 147.5,56.5 C 148.5,56.8333 149.167,57.5 149.5,58.5C 152.467,61.2492 151.8,62.7492 147.5,63C 147.833,63.3333 148.167,63.6667 148.5,64C 144.716,64.3715 141.049,63.8715 137.5,62.5C 137.5,61.8333 137.833,61.5 138.5,61.5C 140.729,60.9447 142.395,59.6114 143.5,57.5C 144.736,56.7542 146.07,56.4208 147.5,56.5 Z"/></g>
<g><path style="opacity:1" fill="#dcdbcd" d="M 109.5,57.5 C 111.493,58.4716 111.826,59.8049 110.5,61.5C 107.449,61.3645 104.449,61.6978 101.5,62.5C 99.6998,62.0976 98.0332,61.4309 96.5,60.5C 96.5,59.5 96.5,58.5 96.5,57.5C 100.833,57.5 105.167,57.5 109.5,57.5 Z"/></g>
<g><path style="opacity:1" fill="#bc8050" d="M 96.5,60.5 C 98.0332,61.4309 99.6998,62.0976 101.5,62.5C 104.449,61.6978 107.449,61.3645 110.5,61.5C 114.779,60.4536 117.445,61.9536 118.5,66C 117.5,68 116.5,68 115.5,66C 109.514,65.0906 103.514,64.2573 97.5,63.5C 97.1373,62.8165 96.8039,62.1499 96.5,61.5C 96.5,61.1667 96.5,60.8333 96.5,60.5 Z"/></g>
<g><path style="opacity:1" fill="#533521" d="M 85.5,36.5 C 84.1282,40.1018 82.4616,43.6018 80.5,47C 79.7844,49.7923 79.4511,52.6257 79.5,55.5C 78.1997,58.0241 78.1997,60.6908 79.5,63.5C 80.5505,62.1152 81.8839,61.1152 83.5,60.5C 83.8333,61 84.1667,61.5 84.5,62C 81.9049,64.6253 79.5715,67.4586 77.5,70.5C 77.7512,68.8297 78.4178,67.3297 79.5,66C 77.6112,62.1638 76.9445,57.9971 77.5,53.5C 77.7764,46.6177 80.443,40.9511 85.5,36.5 Z"/></g>
<g><path style="opacity:1" fill="#965a36" d="M 113.5,56.5 C 115.658,57.4944 117.658,58.8277 119.5,60.5C 120.527,59.2086 121.527,59.2086 122.5,60.5C 122.167,61.1667 121.833,61.8333 121.5,62.5C 121.5,64.8333 121.5,67.1667 121.5,69.5C 119.787,70.6354 119.12,72.302 119.5,74.5C 117.833,74.5 116.167,74.5 114.5,74.5C 114.5,73.1667 114.5,71.8333 114.5,70.5C 110.548,71.2721 106.548,71.6054 102.5,71.5C 103.568,70.5655 104.901,70.2322 106.5,70.5C 106.5,69.5 106.5,68.5 106.5,67.5C 101.763,67.8806 97.0959,68.7139 92.5,70C 92.0426,70.414 91.7093,70.914 91.5,71.5C 92.6888,72.4287 94.0222,72.762 95.5,72.5C 92.3469,75.4592 89.6803,75.1259 87.5,71.5C 88.4104,69.4986 87.5771,68.1653 85,67.5C 84.3333,66.8333 84.3333,66.1667 85,65.5C 86.3204,65.201 87.8204,65.0343 89.5,65C 91.0674,62.259 93.4007,61.0923 96.5,61.5C 96.8039,62.1499 97.1373,62.8165 97.5,63.5C 103.514,64.2573 109.514,65.0906 115.5,66C 116.5,68 117.5,68 118.5,66C 117.445,61.9536 114.779,60.4536 110.5,61.5C 111.826,59.8049 111.493,58.4716 109.5,57.5C 111.099,57.7678 112.432,57.4345 113.5,56.5 Z"/></g>
<g><path style="opacity:1" fill="#553622" d="M 102.5,71.5 C 100.097,71.448 97.7638,71.7814 95.5,72.5C 94.0222,72.762 92.6888,72.4287 91.5,71.5C 91.7093,70.914 92.0426,70.414 92.5,70C 97.0959,68.7139 101.763,67.8806 106.5,67.5C 106.5,68.5 106.5,69.5 106.5,70.5C 104.901,70.2322 103.568,70.5655 102.5,71.5 Z"/></g>
<g><path style="opacity:1" fill="#8c5231" d="M 149.5,58.5 C 150.873,58.3433 152.207,58.51 153.5,59C 154.851,62.195 157.185,64.0283 160.5,64.5C 160.232,62.901 160.566,61.5676 161.5,60.5C 161.552,62.9029 161.219,65.2362 160.5,67.5C 160.443,68.609 160.11,69.609 159.5,70.5C 152.086,70.2172 144.586,70.2172 137,70.5C 136.167,70.8333 135.333,71.1667 134.5,71.5C 135.5,72.8333 136.5,74.1667 137.5,75.5C 137,75.8333 136.5,76.1667 136,76.5C 133.805,75.1998 131.472,74.1998 129,73.5C 128.322,71.4024 128.489,69.4024 129.5,67.5C 131.697,65.5749 134.031,63.9082 136.5,62.5C 136.833,62.5 137.167,62.5 137.5,62.5C 141.049,63.8715 144.716,64.3715 148.5,64C 148.167,63.6667 147.833,63.3333 147.5,63C 151.8,62.7492 152.467,61.2492 149.5,58.5 Z"/></g>
<g><path style="opacity:1" fill="#472015" d="M 140.5,65.5 C 145.575,65.5927 150.575,66.2594 155.5,67.5C 154.829,68.9458 153.662,69.6125 152,69.5C 148.208,68.6898 144.375,68.3564 140.5,68.5C 140.5,67.5 140.5,66.5 140.5,65.5 Z"/></g>
<g><path style="opacity:1" fill="#ad7849" d="M 87.5,71.5 C 86.7119,75.7102 88.3786,78.3768 92.5,79.5C 97.1196,80.4933 101.786,80.8266 106.5,80.5C 101.433,81.1882 96.2666,81.8549 91,82.5C 88.8501,88.2843 89.0168,93.9509 91.5,99.5C 92.0138,101.512 92.1805,103.512 92,105.5C 91.6258,104.584 91.1258,103.75 90.5,103C 87.854,102.503 85.1873,102.336 82.5,102.5C 82.1693,109.125 83.8359,115.125 87.5,120.5C 84.3645,118.24 82.1979,115.24 81,111.5C 80.32,101.654 80.4866,91.8202 81.5,82C 81.1235,79.0953 80.4569,76.262 79.5,73.5C 80.7629,67.5414 83.4296,66.8748 87.5,71.5 Z"/></g>
<g><path style="opacity:1" fill="#382a1d" d="M 74.5,51.5 C 74.3339,57.1764 74.5006,62.8431 75,68.5C 76.0601,63.4277 76.8934,58.4277 77.5,53.5C 76.9445,57.9971 77.6112,62.1638 79.5,66C 78.4178,67.3297 77.7512,68.8297 77.5,70.5C 76.6862,72.631 76.1862,74.9644 76,77.5C 75.2828,76.9558 74.7828,76.2891 74.5,75.5C 73.326,67.3469 73.326,59.3469 74.5,51.5 Z"/></g>
<g><path style="opacity:1" fill="#bb7346" d="M 121.5,69.5 C 121.799,71.604 121.466,73.604 120.5,75.5C 115.99,77.5592 111.323,79.2259 106.5,80.5C 101.786,80.8266 97.1196,80.4933 92.5,79.5C 88.3786,78.3768 86.7119,75.7102 87.5,71.5C 89.6803,75.1259 92.3469,75.4592 95.5,72.5C 97.7638,71.7814 100.097,71.448 102.5,71.5C 106.548,71.6054 110.548,71.2721 114.5,70.5C 114.5,71.8333 114.5,73.1667 114.5,74.5C 116.167,74.5 117.833,74.5 119.5,74.5C 119.12,72.302 119.787,70.6354 121.5,69.5 Z"/></g>
<g><path style="opacity:1" fill="#ba794c" d="M 127.5,66.5 C 128.492,66.3284 129.158,66.6618 129.5,67.5C 128.489,69.4024 128.322,71.4024 129,73.5C 131.472,74.1998 133.805,75.1998 136,76.5C 136.5,76.1667 137,75.8333 137.5,75.5C 136.5,74.1667 135.5,72.8333 134.5,71.5C 135.333,71.1667 136.167,70.8333 137,70.5C 144.586,70.2172 152.086,70.2172 159.5,70.5C 160.801,74.9426 161.468,79.6093 161.5,84.5C 159.707,82.5739 158.707,80.2406 158.5,77.5C 150.493,78.1226 142.493,78.7893 134.5,79.5C 134.5,81.1667 134.5,82.8333 134.5,84.5C 136.288,84.2148 137.955,84.5481 139.5,85.5C 140.393,88.0841 140.726,90.7508 140.5,93.5C 140.167,93.5 139.833,93.5 139.5,93.5C 139.167,93.5 138.833,93.5 138.5,93.5C 137.666,92.2521 136.333,91.5854 134.5,91.5C 131.288,92.3841 128.288,93.7174 125.5,95.5C 123.84,94.8284 122.507,93.8284 121.5,92.5C 124.167,92.5 126.833,92.5 129.5,92.5C 129.786,90.7231 130.453,89.0564 131.5,87.5C 130.393,84.096 129.226,80.7627 128,77.5C 127.501,73.8484 127.335,70.1817 127.5,66.5 Z"/></g>
<g><path style="opacity:1" fill="#d6c2b1" d="M 151.5,71.5 C 152.5,71.5 153.5,71.5 154.5,71.5C 154.499,75.2518 152.833,76.2518 149.5,74.5C 150.193,73.4822 150.859,72.4822 151.5,71.5 Z"/></g>
<g><path style="opacity:1" fill="#a7a397" d="M 168.5,60.5 C 170.509,66.5421 171.676,72.8754 172,79.5C 175.088,82.5885 177.588,86.5885 179.5,91.5C 180.822,91.33 181.989,91.6634 183,92.5C 184.369,95.4929 184.703,98.4929 184,101.5C 186.279,100.41 188.446,100.744 190.5,102.5C 187.833,103.833 187.833,105.167 190.5,106.5C 189.466,109.057 190.466,110.391 193.5,110.5C 193.343,111.873 193.51,113.207 194,114.5C 195,113.167 196,113.167 197,114.5C 197.5,116.5 198,118.5 198.5,120.5C 196.843,123.547 197.843,124.88 201.5,124.5C 201.247,126.827 201.914,128.827 203.5,130.5C 202.282,131.803 202.615,132.803 204.5,133.5C 204.054,135.368 203.721,137.201 203.5,139C 206.15,141.893 207.15,145.393 206.5,149.5C 207.978,149.238 209.311,149.571 210.5,150.5C 208.913,152.446 209.246,153.946 211.5,155C 210.289,156.113 210.289,157.28 211.5,158.5C 210.726,159.711 209.893,159.711 209,158.5C 208.626,159.416 208.126,160.25 207.5,161C 209.134,161.494 210.801,161.66 212.5,161.5C 212.52,163.143 211.853,164.476 210.5,165.5C 211.747,167.042 211.747,168.542 210.5,170C 213.684,171.806 214.017,173.806 211.5,176C 213.302,177.827 215.468,178.994 218,179.5C 218.195,180.819 218.028,182.153 217.5,183.5C 215.348,181.015 212.681,179.349 209.5,178.5C 205.353,177.675 201.019,177.175 196.5,177C 195.001,174.672 193.334,172.505 191.5,170.5C 191.489,168.983 190.823,167.816 189.5,167C 190.127,165.262 190.46,163.429 190.5,161.5C 190.387,159.359 189.72,157.525 188.5,156C 189.022,155.439 189.355,154.772 189.5,154C 188.134,149.601 187.467,145.101 187.5,140.5C 183.172,139.872 182.505,137.872 185.5,134.5C 181.64,131.474 178.306,127.974 175.5,124C 176.624,123.751 177.624,123.251 178.5,122.5C 177.726,121.289 176.893,121.289 176,122.5C 174.086,121.324 174.252,120.324 176.5,119.5C 175.167,118.5 173.833,117.5 172.5,116.5C 173.426,112.906 173.759,109.24 173.5,105.5C 173.666,100.489 173.499,95.4889 173,90.5C 169.804,80.8653 168.304,70.8653 168.5,60.5 Z"/></g>
<g><path style="opacity:1" fill="#d39465" d="M 121.5,62.5 C 123.167,62.5 124.833,62.5 126.5,62.5C 126.433,63.9587 126.766,65.2921 127.5,66.5C 127.335,70.1817 127.501,73.8484 128,77.5C 129.226,80.7627 130.393,84.096 131.5,87.5C 130.453,89.0564 129.786,90.7231 129.5,92.5C 126.833,92.5 124.167,92.5 121.5,92.5C 117.544,90.478 114.877,91.478 113.5,95.5C 112.883,95.3893 112.383,95.056 112,94.5C 110.878,96.6238 109.378,98.4571 107.5,100C 104.11,100.246 100.777,100.746 97.5,101.5C 95.677,100.253 93.677,99.5861 91.5,99.5C 89.0168,93.9509 88.8501,88.2843 91,82.5C 96.2666,81.8549 101.433,81.1882 106.5,80.5C 111.323,79.2259 115.99,77.5592 120.5,75.5C 121.466,73.604 121.799,71.604 121.5,69.5C 121.5,67.1667 121.5,64.8333 121.5,62.5 Z"/></g>
<g><path style="opacity:1" fill="#6b543b" d="M 167.5,60.5 C 167.833,60.5 168.167,60.5 168.5,60.5C 168.304,70.8653 169.804,80.8653 173,90.5C 173.499,95.4889 173.666,100.489 173.5,105.5C 171.717,109.886 170.717,114.553 170.5,119.5C 168.535,123.559 167.035,127.892 166,132.5C 164.627,135.939 162.793,138.939 160.5,141.5C 161.44,134.856 162.274,128.19 163,121.5C 170.101,111.301 172.435,99.9676 170,87.5C 169.333,86.1667 168.333,85.1667 167,84.5C 166.5,77.8417 166.334,71.175 166.5,64.5C 167.434,63.4324 167.768,62.099 167.5,60.5 Z"/></g>
<g><path style="opacity:1" fill="#9a6640" d="M 168.5,98.5 C 167.527,97.2086 166.527,97.2086 165.5,98.5C 164.478,98.1445 163.811,97.4778 163.5,96.5C 162.925,92.4767 162.259,88.4767 161.5,84.5C 161.468,79.6093 160.801,74.9426 159.5,70.5C 160.11,69.609 160.443,68.609 160.5,67.5C 161.708,66.7659 163.041,66.4326 164.5,66.5C 164.924,77.2921 166.257,87.9588 168.5,98.5 Z"/></g>
<g><path style="opacity:1" fill="#a6a196" d="M 103.5,13.5 C 89.2898,22.7088 79.6232,35.3755 74.5,51.5C 73.326,59.3469 73.326,67.3469 74.5,75.5C 73.5084,75.3284 72.8417,75.6618 72.5,76.5C 71.0027,78.2897 70.336,80.4563 70.5,83C 71.409,94.4082 72.7423,105.742 74.5,117C 74.2196,118.395 73.5529,119.562 72.5,120.5C 71.7564,119.009 71.0897,117.509 70.5,116C 68.567,115.749 66.7337,115.249 65,114.5C 62.1036,117.523 59.9369,120.856 58.5,124.5C 57.1779,124.33 56.0113,124.663 55,125.5C 54.6824,127.061 53.8491,128.228 52.5,129C 53.1667,129.667 53.8333,130.333 54.5,131C 52.6667,132.5 50.8333,134 49,135.5C 48.6667,135.167 48.3333,134.833 48,134.5C 46.3093,136.709 46.476,138.542 48.5,140C 47.5,140.333 46.5,140.667 45.5,141C 46.1845,142.693 47.1845,144.193 48.5,145.5C 45.5833,148.268 46.25,149.768 50.5,150C 48.9386,150.941 47.6053,152.108 46.5,153.5C 47.5,154.167 48.5,154.833 49.5,155.5C 47.9936,156.747 46.4936,156.747 45,155.5C 44.9323,158.319 43.7656,160.486 41.5,162C 42.4581,163.147 42.1247,164.147 40.5,165C 41.1667,165.333 41.8333,165.667 42.5,166C 36.7561,167.379 31.4227,169.546 26.5,172.5C 23.9959,173.584 21.6626,174.917 19.5,176.5C 3.66686,137.689 6.66686,100.355 28.5,64.5C 46.8429,37.82 71.8429,20.82 103.5,13.5 Z"/></g>
<g><path style="opacity:1" fill="#865d3b" d="M 110.5,54.5 C 112.179,54.2852 113.179,54.9519 113.5,56.5C 112.432,57.4345 111.099,57.7678 109.5,57.5C 105.167,57.5 100.833,57.5 96.5,57.5C 96.5,58.5 96.5,59.5 96.5,60.5C 96.5,60.8333 96.5,61.1667 96.5,61.5C 93.4007,61.0923 91.0674,62.259 89.5,65C 87.8204,65.0343 86.3204,65.201 85,65.5C 84.3333,66.1667 84.3333,66.8333 85,67.5C 87.5771,68.1653 88.4104,69.4986 87.5,71.5C 83.4296,66.8748 80.7629,67.5414 79.5,73.5C 80.4569,76.262 81.1235,79.0953 81.5,82C 80.4866,91.8202 80.32,101.654 81,111.5C 82.1979,115.24 84.3645,118.24 87.5,120.5C 87.5394,121.583 87.8728,122.583 88.5,123.5C 88,123.833 87.5,124.167 87,124.5C 85.0045,122.339 82.8378,120.339 80.5,118.5C 79.6143,119.325 79.281,120.325 79.5,121.5C 77.1327,113.928 75.1327,106.262 73.5,98.5C 73.0561,91.1729 72.7228,83.8395 72.5,76.5C 72.8417,75.6618 73.5084,75.3284 74.5,75.5C 74.7828,76.2891 75.2828,76.9558 76,77.5C 76.1862,74.9644 76.6862,72.631 77.5,70.5C 79.5715,67.4586 81.9049,64.6253 84.5,62C 84.1667,61.5 83.8333,61 83.5,60.5C 81.8839,61.1152 80.5505,62.1152 79.5,63.5C 78.1997,60.6908 78.1997,58.0241 79.5,55.5C 79.2148,57.288 79.5481,58.9547 80.5,60.5C 84.3288,60.0264 87.6622,58.6931 90.5,56.5C 89.1498,57.6499 89.3164,58.3166 91,58.5C 97.7987,57.3807 104.299,56.0473 110.5,54.5 Z"/></g>
<g><path style="opacity:1" fill="#ebb38e" d="M 104.5,83.5 C 106.5,83.5 108.5,83.5 110.5,83.5C 109.432,87.7374 106.766,90.5708 102.5,92C 101.111,93.9571 99.6111,95.7904 98,97.5C 97.228,97.3552 96.5613,97.0219 96,96.5C 95.502,93.5184 95.3354,90.5184 95.5,87.5C 99.1024,87.3076 102.102,85.9743 104.5,83.5 Z"/></g>
<g><path style="opacity:1" fill="#804c2c" d="M 121.5,92.5 C 122.507,93.8284 123.84,94.8284 125.5,95.5C 128.288,93.7174 131.288,92.3841 134.5,91.5C 136.333,91.5854 137.666,92.2521 138.5,93.5C 134.319,94.9176 130.152,96.251 126,97.5C 123.24,97.3861 120.907,96.3861 119,94.5C 117.175,94.9434 115.342,95.2767 113.5,95.5C 114.877,91.478 117.544,90.478 121.5,92.5 Z"/></g>
<g><path style="opacity:1" fill="#a2774f" d="M 138.5,93.5 C 138.833,93.5 139.167,93.5 139.5,93.5C 139.96,96.9568 141.96,98.6235 145.5,98.5C 145.307,102.037 146.64,104.703 149.5,106.5C 149.179,108.048 148.179,108.715 146.5,108.5C 147.598,107.603 147.598,106.77 146.5,106C 144.564,105.187 142.564,104.687 140.5,104.5C 140.5,104.167 140.5,103.833 140.5,103.5C 139.637,102.06 139.637,100.726 140.5,99.5C 133.473,98.2026 126.473,98.2026 119.5,99.5C 116.819,99.0676 114.819,97.7343 113.5,95.5C 115.342,95.2767 117.175,94.9434 119,94.5C 120.907,96.3861 123.24,97.3861 126,97.5C 130.152,96.251 134.319,94.9176 138.5,93.5 Z"/></g>
<g><path style="opacity:1" fill="#d59466" d="M 161.5,84.5 C 162.259,88.4767 162.925,92.4767 163.5,96.5C 162.5,96.5 161.5,96.5 160.5,96.5C 160.5,98.5 160.5,100.5 160.5,102.5C 154.894,102.752 150.894,100.252 148.5,95C 147.328,94.6466 146.162,94.8132 145,95.5C 143.594,94.5862 142.094,93.9195 140.5,93.5C 140.726,90.7508 140.393,88.0841 139.5,85.5C 137.955,84.5481 136.288,84.2148 134.5,84.5C 134.5,82.8333 134.5,81.1667 134.5,79.5C 142.493,78.7893 150.493,78.1226 158.5,77.5C 158.707,80.2406 159.707,82.5739 161.5,84.5 Z"/></g>
<g><path style="opacity:1" fill="#e9b18a" d="M 140.5,82.5 C 145.593,82.421 150.26,83.7543 154.5,86.5C 155.248,89.4973 155.915,92.4973 156.5,95.5C 155.919,97.7236 154.586,98.557 152.5,98C 148.339,92.786 144.339,87.6194 140.5,82.5 Z"/></g>
<g><path style="opacity:1" fill="#be7d4e" d="M 140.5,103.5 C 140.5,103.833 140.5,104.167 140.5,104.5C 136.995,104.694 136.662,105.694 139.5,107.5C 131.177,108.268 122.843,108.934 114.5,109.5C 114.5,110.833 114.5,112.167 114.5,113.5C 118.188,113.55 121.855,113.884 125.5,114.5C 129.05,113.235 132.716,112.235 136.5,111.5C 138.684,112.266 141.018,112.933 143.5,113.5C 145.051,112.2 146.051,110.533 146.5,108.5C 148.179,108.715 149.179,108.048 149.5,106.5C 152.365,108.542 152.032,109.708 148.5,110C 148.784,111.956 148.784,114.123 148.5,116.5C 147.182,118.751 145.516,120.751 143.5,122.5C 140.5,121.167 137.5,119.833 134.5,118.5C 130.6,117.57 126.6,117.237 122.5,117.5C 122.843,119.483 122.176,120.817 120.5,121.5C 118.135,120.949 115.801,120.116 113.5,119C 110.572,116.91 108.239,114.41 106.5,111.5C 108.677,111.414 110.677,110.747 112.5,109.5C 113.773,108.743 113.773,108.077 112.5,107.5C 114.023,105.718 116.023,104.385 118.5,103.5C 120.75,104.459 123.084,105.125 125.5,105.5C 130.377,103.958 135.377,103.291 140.5,103.5 Z"/></g>
<g><path style="opacity:1" fill="#764025" d="M 112.5,107.5 C 113.773,108.077 113.773,108.743 112.5,109.5C 110.677,110.747 108.677,111.414 106.5,111.5C 105.909,110.849 105.243,110.182 104.5,109.5C 104.709,108.914 105.043,108.414 105.5,108C 107.81,107.503 110.143,107.337 112.5,107.5 Z"/></g>
<g><path style="opacity:1" fill="#875331" d="M 140.5,104.5 C 142.564,104.687 144.564,105.187 146.5,106C 147.598,106.77 147.598,107.603 146.5,108.5C 146.051,110.533 145.051,112.2 143.5,113.5C 141.018,112.933 138.684,112.266 136.5,111.5C 137.718,110.839 139.051,110.172 140.5,109.5C 140.137,108.817 139.804,108.15 139.5,107.5C 136.662,105.694 136.995,104.694 140.5,104.5 Z"/></g>
<g><path style="opacity:1" fill="#d8ab7b" d="M 139.5,107.5 C 139.804,108.15 140.137,108.817 140.5,109.5C 139.051,110.172 137.718,110.839 136.5,111.5C 132.716,112.235 129.05,113.235 125.5,114.5C 121.855,113.884 118.188,113.55 114.5,113.5C 114.5,112.167 114.5,110.833 114.5,109.5C 122.843,108.934 131.177,108.268 139.5,107.5 Z"/></g>
<g><path style="opacity:1" fill="#9d9a8c" d="M 72.5,76.5 C 72.7228,83.8395 73.0561,91.1729 73.5,98.5C 73.5044,110.97 76.3378,122.636 82,133.5C 82.1667,135 82.3333,136.5 82.5,138C 82.4313,139.986 81.7647,141.486 80.5,142.5C 78.5454,141.677 76.5454,141.51 74.5,142C 71.5914,148.327 67.5914,153.827 62.5,158.5C 61.1667,158.5 60.5,159.167 60.5,160.5C 59.6618,160.842 59.3284,161.508 59.5,162.5C 58.8444,161.722 58.0111,161.056 57,160.5C 53.8911,162.771 50.3911,163.938 46.5,164C 45.1667,165.333 43.8333,166.667 42.5,168C 39.1258,168.521 36.1258,169.854 33.5,172C 31.1902,172.497 28.8568,172.663 26.5,172.5C 31.4227,169.546 36.7561,167.379 42.5,166C 41.8333,165.667 41.1667,165.333 40.5,165C 42.1247,164.147 42.4581,163.147 41.5,162C 43.7656,160.486 44.9323,158.319 45,155.5C 46.4936,156.747 47.9936,156.747 49.5,155.5C 48.5,154.833 47.5,154.167 46.5,153.5C 47.6053,152.108 48.9386,150.941 50.5,150C 46.25,149.768 45.5833,148.268 48.5,145.5C 47.1845,144.193 46.1845,142.693 45.5,141C 46.5,140.667 47.5,140.333 48.5,140C 46.476,138.542 46.3093,136.709 48,134.5C 48.3333,134.833 48.6667,135.167 49,135.5C 50.8333,134 52.6667,132.5 54.5,131C 53.8333,130.333 53.1667,129.667 52.5,129C 53.8491,128.228 54.6824,127.061 55,125.5C 56.0113,124.663 57.1779,124.33 58.5,124.5C 59.9369,120.856 62.1036,117.523 65,114.5C 66.7337,115.249 68.567,115.749 70.5,116C 71.0897,117.509 71.7564,119.009 72.5,120.5C 73.5529,119.562 74.2196,118.395 74.5,117C 72.7423,105.742 71.409,94.4082 70.5,83C 70.336,80.4563 71.0027,78.2897 72.5,76.5 Z"/></g>
<g><path style="opacity:1" fill="#c1935f" d="M 139.5,93.5 C 139.833,93.5 140.167,93.5 140.5,93.5C 142.094,93.9195 143.594,94.5862 145,95.5C 146.162,94.8132 147.328,94.6466 148.5,95C 150.894,100.252 154.894,102.752 160.5,102.5C 161.019,106.756 159.853,110.423 157,113.5C 156.338,115.813 155.838,118.146 155.5,120.5C 152.932,119.55 150.432,119.55 148,120.5C 147.805,119.181 147.972,117.847 148.5,116.5C 148.784,114.123 148.784,111.956 148.5,110C 152.032,109.708 152.365,108.542 149.5,106.5C 146.64,104.703 145.307,102.037 145.5,98.5C 141.96,98.6235 139.96,96.9568 139.5,93.5 Z"/></g>
<g><path style="opacity:1" fill="#a3794a" d="M 163.5,96.5 C 163.811,97.4778 164.478,98.1445 165.5,98.5C 166.527,97.2086 167.527,97.2086 168.5,98.5C 167.961,104.279 166.961,109.946 165.5,115.5C 164.167,115.5 162.833,115.5 161.5,115.5C 161.5,116.5 161.5,117.5 161.5,118.5C 159.394,118.679 157.728,119.679 156.5,121.5C 153.572,122.484 150.572,122.817 147.5,122.5C 147.664,125.187 147.497,127.854 147,130.5C 144.972,132.739 143.805,135.406 143.5,138.5C 142.833,138.833 142.167,139.167 141.5,139.5C 134.307,139.178 127.307,139.845 120.5,141.5C 115.57,142.034 111.57,140.368 108.5,136.5C 107.702,136.957 107.369,137.624 107.5,138.5C 106.527,136.861 105.194,135.527 103.5,134.5C 103.5,132.5 103.5,130.5 103.5,128.5C 105.5,128.5 107.5,128.5 109.5,128.5C 110.273,134.913 113.773,138.913 120,140.5C 127.827,139.101 135.66,137.768 143.5,136.5C 143.753,134.173 143.086,132.173 141.5,130.5C 144.574,128.471 145.24,125.804 143.5,122.5C 145.516,120.751 147.182,118.751 148.5,116.5C 147.972,117.847 147.805,119.181 148,120.5C 150.432,119.55 152.932,119.55 155.5,120.5C 155.838,118.146 156.338,115.813 157,113.5C 159.853,110.423 161.019,106.756 160.5,102.5C 160.5,100.5 160.5,98.5 160.5,96.5C 161.5,96.5 162.5,96.5 163.5,96.5 Z"/></g>
<g><path style="opacity:1" fill="#bb8d5a" d="M 113.5,95.5 C 114.819,97.7343 116.819,99.0676 119.5,99.5C 126.473,98.2026 133.473,98.2026 140.5,99.5C 139.637,100.726 139.637,102.06 140.5,103.5C 135.377,103.291 130.377,103.958 125.5,105.5C 123.084,105.125 120.75,104.459 118.5,103.5C 116.023,104.385 114.023,105.718 112.5,107.5C 110.143,107.337 107.81,107.503 105.5,108C 105.043,108.414 104.709,108.914 104.5,109.5C 105.243,110.182 105.909,110.849 106.5,111.5C 108.239,114.41 110.572,116.91 113.5,119C 115.801,120.116 118.135,120.949 120.5,121.5C 119.064,122.429 117.731,123.595 116.5,125C 117.38,126.356 117.714,127.856 117.5,129.5C 119.288,129.215 120.955,129.548 122.5,130.5C 123.557,132.849 125.057,134.849 127,136.5C 127.388,135.572 128.055,134.905 129,134.5C 129.667,135.167 130.333,135.833 131,136.5C 132.73,135.351 134.396,135.351 136,136.5C 136.46,133.696 135.96,131.029 134.5,128.5C 135.167,127.5 135.833,126.5 136.5,125.5C 132.429,124.863 128.429,124.029 124.5,123C 127.757,121.957 131.09,121.457 134.5,121.5C 134.5,120.5 134.5,119.5 134.5,118.5C 137.5,119.833 140.5,121.167 143.5,122.5C 145.24,125.804 144.574,128.471 141.5,130.5C 143.086,132.173 143.753,134.173 143.5,136.5C 135.66,137.768 127.827,139.101 120,140.5C 113.773,138.913 110.273,134.913 109.5,128.5C 107.5,128.5 105.5,128.5 103.5,128.5C 103.5,130.5 103.5,132.5 103.5,134.5C 99.3978,131.717 97.5644,133.05 98,138.5C 94.9031,139.289 94.7364,140.456 97.5,142C 98.7932,142.49 100.127,142.657 101.5,142.5C 101.826,144.661 102.826,146.494 104.5,148C 110.643,150.671 116.643,153.505 122.5,156.5C 122.167,157.167 121.833,157.833 121.5,158.5C 124.086,159.48 126.753,159.813 129.5,159.5C 128.737,160.268 127.737,160.768 126.5,161C 121.021,161.067 115.688,161.233 110.5,161.5C 109.5,161.5 108.5,161.5 107.5,161.5C 104.726,159.719 101.726,158.385 98.5,157.5C 99.2389,157.631 99.9056,157.464 100.5,157C 99.0126,154.515 97.1792,152.348 95,150.5C 95.0284,146.277 93.6951,142.611 91,139.5C 88.9785,134.826 89.1452,130.326 91.5,126C 90.7023,123.713 89.369,121.88 87.5,120.5C 83.8359,115.125 82.1693,109.125 82.5,102.5C 85.1873,102.336 87.854,102.503 90.5,103C 91.1258,103.75 91.6258,104.584 92,105.5C 92.1805,103.512 92.0138,101.512 91.5,99.5C 93.677,99.5861 95.677,100.253 97.5,101.5C 100.777,100.746 104.11,100.246 107.5,100C 109.378,98.4571 110.878,96.6238 112,94.5C 112.383,95.056 112.883,95.3893 113.5,95.5 Z"/></g>
<g><path style="opacity:1" fill="#89633c" d="M 161.5,60.5 C 162.833,61.5 164.167,62.5 165.5,63.5C 165.5,64.1667 165.833,64.5 166.5,64.5C 166.334,71.175 166.5,77.8417 167,84.5C 168.333,85.1667 169.333,86.1667 170,87.5C 172.435,99.9676 170.101,111.301 163,121.5C 162.274,128.19 161.44,134.856 160.5,141.5C 154.793,143.901 151.793,148.234 151.5,154.5C 153.167,154.5 154.833,154.5 156.5,154.5C 156.037,157.482 155.704,160.482 155.5,163.5C 156.5,163.5 157.5,163.5 158.5,163.5C 158.5,166.5 158.5,169.5 158.5,172.5C 158.5,173.167 158.167,173.5 157.5,173.5C 157.5,170.833 157.5,168.167 157.5,165.5C 154.956,166.468 152.789,168.135 151,170.5C 151.577,166.232 152.077,161.898 152.5,157.5C 151.041,157.433 149.708,157.766 148.5,158.5C 147.022,158.762 145.689,158.429 144.5,157.5C 146.957,151.531 150.79,146.531 156,142.5C 158.382,139.428 159.882,135.928 160.5,132C 160.167,131.5 159.833,131 159.5,130.5C 158.378,131.63 157.044,132.297 155.5,132.5C 156.519,130.46 156.519,128.46 155.5,126.5C 152.662,128.834 150.829,131.834 150,135.5C 148.13,137.219 145.963,138.219 143.5,138.5C 143.805,135.406 144.972,132.739 147,130.5C 147.497,127.854 147.664,125.187 147.5,122.5C 150.572,122.817 153.572,122.484 156.5,121.5C 157.728,119.679 159.394,118.679 161.5,118.5C 161.5,117.5 161.5,116.5 161.5,115.5C 162.833,115.5 164.167,115.5 165.5,115.5C 166.961,109.946 167.961,104.279 168.5,98.5C 166.257,87.9588 164.924,77.2921 164.5,66.5C 163.041,66.4326 161.708,66.7659 160.5,67.5C 161.219,65.2362 161.552,62.9029 161.5,60.5 Z"/></g>
<g><path style="opacity:1" fill="#9b9889" d="M 173.5,105.5 C 173.759,109.24 173.426,112.906 172.5,116.5C 173.833,117.5 175.167,118.5 176.5,119.5C 174.252,120.324 174.086,121.324 176,122.5C 176.893,121.289 177.726,121.289 178.5,122.5C 177.624,123.251 176.624,123.751 175.5,124C 178.306,127.974 181.64,131.474 185.5,134.5C 182.505,137.872 183.172,139.872 187.5,140.5C 187.467,145.101 188.134,149.601 189.5,154C 189.355,154.772 189.022,155.439 188.5,156C 189.72,157.525 190.387,159.359 190.5,161.5C 190.46,163.429 190.127,165.262 189.5,167C 190.823,167.816 191.489,168.983 191.5,170.5C 190.504,170.586 189.671,170.252 189,169.5C 188.027,167.608 187.36,165.608 187,163.5C 185.919,165.767 184.419,165.934 182.5,164C 184.277,159.398 182.944,156.231 178.5,154.5C 178.153,149.984 176.82,145.817 174.5,142C 175.357,141.311 176.023,140.478 176.5,139.5C 174.376,138.542 172.376,137.375 170.5,136C 171.5,135.667 172.5,135.333 173.5,135C 171.939,134.059 170.605,132.892 169.5,131.5C 169.452,127.603 169.785,123.603 170.5,119.5C 170.717,114.553 171.717,109.886 173.5,105.5 Z"/></g>
<g><path style="opacity:1" fill="#7a6043" d="M 73.5,98.5 C 75.1327,106.262 77.1327,113.928 79.5,121.5C 80.8775,125.988 82.7109,130.321 85,134.5C 85.5801,138.942 85.0801,143.276 83.5,147.5C 84.0567,150.046 85.0567,152.379 86.5,154.5C 85.2058,153.71 84.0391,152.71 83,151.5C 82.9206,148.169 82.0873,145.169 80.5,142.5C 81.7647,141.486 82.4313,139.986 82.5,138C 82.3333,136.5 82.1667,135 82,133.5C 76.3378,122.636 73.5044,110.97 73.5,98.5 Z"/></g>
<g><path style="opacity:1" fill="#ca9a6e" d="M 134.5,118.5 C 134.5,119.5 134.5,120.5 134.5,121.5C 131.09,121.457 127.757,121.957 124.5,123C 128.429,124.029 132.429,124.863 136.5,125.5C 135.833,126.5 135.167,127.5 134.5,128.5C 135.96,131.029 136.46,133.696 136,136.5C 134.396,135.351 132.73,135.351 131,136.5C 130.333,135.833 129.667,135.167 129,134.5C 128.055,134.905 127.388,135.572 127,136.5C 125.057,134.849 123.557,132.849 122.5,130.5C 120.955,129.548 119.288,129.215 117.5,129.5C 117.714,127.856 117.38,126.356 116.5,125C 117.731,123.595 119.064,122.429 120.5,121.5C 122.176,120.817 122.843,119.483 122.5,117.5C 126.6,117.237 130.6,117.57 134.5,118.5 Z"/></g>
<g><path style="opacity:1" fill="#918d7e" d="M 170.5,119.5 C 169.785,123.603 169.452,127.603 169.5,131.5C 170.605,132.892 171.939,134.059 173.5,135C 172.5,135.333 171.5,135.667 170.5,136C 172.376,137.375 174.376,138.542 176.5,139.5C 176.023,140.478 175.357,141.311 174.5,142C 176.82,145.817 178.153,149.984 178.5,154.5C 182.944,156.231 184.277,159.398 182.5,164C 184.419,165.934 185.919,165.767 187,163.5C 187.36,165.608 188.027,167.608 189,169.5C 189.671,170.252 190.504,170.586 191.5,170.5C 193.334,172.505 195.001,174.672 196.5,177C 201.019,177.175 205.353,177.675 209.5,178.5C 201.728,180.001 195.061,178.167 189.5,173C 186.446,170.792 183.113,169.792 179.5,170C 180.582,171.33 181.249,172.83 181.5,174.5C 181.167,174.5 180.833,174.5 180.5,174.5C 179.833,173.833 179.167,173.167 178.5,172.5C 176.158,167.309 172.158,163.976 166.5,162.5C 165.705,158.387 163.705,155.054 160.5,152.5C 159.242,148.8 159.242,145.134 160.5,141.5C 162.793,138.939 164.627,135.939 166,132.5C 167.035,127.892 168.535,123.559 170.5,119.5 Z"/></g>
<g><path style="opacity:1" fill="#9b7344" d="M 148.5,158.5 C 147.694,159.728 146.694,160.728 145.5,161.5C 144.833,161.5 144.167,161.5 143.5,161.5C 141.468,160.952 140.468,159.619 140.5,157.5C 137.941,157.61 135.608,156.944 133.5,155.5C 136.195,153.306 139.028,151.306 142,149.5C 142.72,147.888 142.554,146.388 141.5,145C 139.577,144.192 137.577,143.692 135.5,143.5C 132.201,144.21 128.867,144.543 125.5,144.5C 132.104,143.06 138.771,142.06 145.5,141.5C 147.465,139.512 149.798,138.012 152.5,137C 153.883,135.729 154.883,134.229 155.5,132.5C 157.044,132.297 158.378,131.63 159.5,130.5C 159.833,131 160.167,131.5 160.5,132C 159.882,135.928 158.382,139.428 156,142.5C 150.79,146.531 146.957,151.531 144.5,157.5C 145.689,158.429 147.022,158.762 148.5,158.5 Z"/></g>
<g><path style="opacity:1" fill="#614326" d="M 155.5,132.5 C 154.883,134.229 153.883,135.729 152.5,137C 149.798,138.012 147.465,139.512 145.5,141.5C 143.517,141.843 142.183,141.176 141.5,139.5C 142.167,139.167 142.833,138.833 143.5,138.5C 145.963,138.219 148.13,137.219 150,135.5C 150.829,131.834 152.662,128.834 155.5,126.5C 156.519,128.46 156.519,130.46 155.5,132.5 Z"/></g>
<g><path style="opacity:1" fill="#7f5933" d="M 141.5,139.5 C 142.183,141.176 143.517,141.843 145.5,141.5C 138.771,142.06 132.104,143.06 125.5,144.5C 121.818,144.665 118.152,144.499 114.5,144C 112.136,142.158 109.803,140.325 107.5,138.5C 107.369,137.624 107.702,136.957 108.5,136.5C 111.57,140.368 115.57,142.034 120.5,141.5C 127.307,139.845 134.307,139.178 141.5,139.5 Z"/></g>
<g><path style="opacity:1" fill="#bd925d" d="M 103.5,134.5 C 105.194,135.527 106.527,136.861 107.5,138.5C 109.803,140.325 112.136,142.158 114.5,144C 118.152,144.499 121.818,144.665 125.5,144.5C 128.867,144.543 132.201,144.21 135.5,143.5C 137.577,143.692 139.577,144.192 141.5,145C 142.554,146.388 142.72,147.888 142,149.5C 139.028,151.306 136.195,153.306 133.5,155.5C 135.608,156.944 137.941,157.61 140.5,157.5C 140.468,159.619 141.468,160.952 143.5,161.5C 141.229,162.054 138.896,161.554 136.5,160C 134.19,159.503 131.857,159.337 129.5,159.5C 126.753,159.813 124.086,159.48 121.5,158.5C 121.833,157.833 122.167,157.167 122.5,156.5C 116.643,153.505 110.643,150.671 104.5,148C 102.826,146.494 101.826,144.661 101.5,142.5C 100.127,142.657 98.7932,142.49 97.5,142C 94.7364,140.456 94.9031,139.289 98,138.5C 97.5644,133.05 99.3978,131.717 103.5,134.5 Z"/></g>
<g><path style="opacity:1" fill="#986a3c" d="M 87.5,120.5 C 89.369,121.88 90.7023,123.713 91.5,126C 89.1452,130.326 88.9785,134.826 91,139.5C 93.6951,142.611 95.0284,146.277 95,150.5C 97.1792,152.348 99.0126,154.515 100.5,157C 99.9056,157.464 99.2389,157.631 98.5,157.5C 94.289,155.469 90.4556,152.802 87,149.5C 88.2026,152.9 89.7026,156.233 91.5,159.5C 90.0613,157.64 88.3947,155.973 86.5,154.5C 85.0567,152.379 84.0567,150.046 83.5,147.5C 85.0801,143.276 85.5801,138.942 85,134.5C 82.7109,130.321 80.8775,125.988 79.5,121.5C 79.281,120.325 79.6143,119.325 80.5,118.5C 82.8378,120.339 85.0045,122.339 87,124.5C 87.5,124.167 88,123.833 88.5,123.5C 87.8728,122.583 87.5394,121.583 87.5,120.5 Z"/></g>
<g><path style="opacity:1" fill="#6e4f31" d="M 160.5,141.5 C 159.242,145.134 159.242,148.8 160.5,152.5C 160.094,158.323 159.927,164.323 160,170.5C 159.722,171.416 159.222,172.082 158.5,172.5C 158.5,169.5 158.5,166.5 158.5,163.5C 157.5,163.5 156.5,163.5 155.5,163.5C 155.704,160.482 156.037,157.482 156.5,154.5C 154.833,154.5 153.167,154.5 151.5,154.5C 151.793,148.234 154.793,143.901 160.5,141.5 Z"/></g>
<g><path style="opacity:1" fill="#691f29" d="M 62.5,158.5 C 69.2716,170.781 78.1049,181.448 89,190.5C 89.6917,191.437 89.525,192.103 88.5,192.5C 77.3613,183.365 68.028,172.698 60.5,160.5C 60.5,159.167 61.1667,158.5 62.5,158.5 Z"/></g>
<g><path style="opacity:1" fill="#d59f66" d="M 98.5,157.5 C 101.726,158.385 104.726,159.719 107.5,161.5C 106.624,161.369 105.957,161.702 105.5,162.5C 110.126,166.492 115.459,169.159 121.5,170.5C 122.624,171.914 123.624,173.414 124.5,175C 121.215,175.824 117.882,176.324 114.5,176.5C 110.85,175.285 107.183,173.951 103.5,172.5C 98.7923,168.793 94.7923,164.46 91.5,159.5C 89.7026,156.233 88.2026,152.9 87,149.5C 90.4556,152.802 94.289,155.469 98.5,157.5 Z"/></g>
<g><path style="opacity:1" fill="#0d0d0f" d="M 80.5,142.5 C 82.0873,145.169 82.9206,148.169 83,151.5C 84.0391,152.71 85.2058,153.71 86.5,154.5C 88.3947,155.973 90.0613,157.64 91.5,159.5C 94.7923,164.46 98.7923,168.793 103.5,172.5C 106.509,178 111.176,180.833 117.5,181C 120.062,183.733 122.729,186.233 125.5,188.5C 129.24,192.233 132.573,196.233 135.5,200.5C 135.685,202.196 136.519,203.529 138,204.5C 140.844,200.138 143.677,195.805 146.5,191.5C 149.1,194.254 151.1,193.754 152.5,190C 152.355,189.228 152.022,188.561 151.5,188C 152.71,186.961 153.71,185.794 154.5,184.5C 155.404,183.791 155.737,182.791 155.5,181.5C 156.117,181.389 156.617,181.056 157,180.5C 157.497,178.19 157.663,175.857 157.5,173.5C 158.167,173.5 158.5,173.167 158.5,172.5C 159.222,172.082 159.722,171.416 160,170.5C 159.927,164.323 160.094,158.323 160.5,152.5C 163.705,155.054 165.705,158.387 166.5,162.5C 172.158,163.976 176.158,167.309 178.5,172.5C 179.022,178.729 178.356,184.729 176.5,190.5C 176.983,193.316 178.316,193.983 180.5,192.5C 182.645,186.496 182.978,180.496 181.5,174.5C 181.249,172.83 180.582,171.33 179.5,170C 183.113,169.792 186.446,170.792 189.5,173C 195.061,178.167 201.728,180.001 209.5,178.5C 212.681,179.349 215.348,181.015 217.5,183.5C 222.037,185.121 226.371,187.121 230.5,189.5C 213.732,217.068 189.732,235.235 158.5,244C 100.738,255.605 56.0709,236.772 24.5,187.5C 23.1049,183.71 21.4383,180.043 19.5,176.5C 21.6626,174.917 23.9959,173.584 26.5,172.5C 28.8568,172.663 31.1902,172.497 33.5,172C 36.1258,169.854 39.1258,168.521 42.5,168C 43.8333,166.667 45.1667,165.333 46.5,164C 50.3911,163.938 53.8911,162.771 57,160.5C 58.0111,161.056 58.8444,161.722 59.5,162.5C 67.4266,173.807 76.4266,184.307 86.5,194C 87.816,194.528 88.4827,194.028 88.5,192.5C 89.525,192.103 89.6917,191.437 89,190.5C 78.1049,181.448 69.2716,170.781 62.5,158.5C 67.5914,153.827 71.5914,148.327 74.5,142C 76.5454,141.51 78.5454,141.677 80.5,142.5 Z"/></g>
<g><path style="opacity:1" fill="#672a23" d="M 155.5,181.5 C 155.737,182.791 155.404,183.791 154.5,184.5C 151.236,186.094 148.569,188.427 146.5,191.5C 143.677,195.805 140.844,200.138 138,204.5C 136.519,203.529 135.685,202.196 135.5,200.5C 139.847,193.641 145.18,187.474 151.5,182C 152.793,181.51 154.127,181.343 155.5,181.5 Z"/></g>
<g><path style="opacity:1" fill="#bb9795" d="M 180.5,174.5 C 180.833,174.5 181.167,174.5 181.5,174.5C 182.978,180.496 182.645,186.496 180.5,192.5C 178.03,191.64 177.863,190.306 180,188.5C 180.499,183.845 180.666,179.179 180.5,174.5 Z"/></g>
<g><path style="opacity:1" fill="#6f5b4b" d="M 154.5,184.5 C 153.71,185.794 152.71,186.961 151.5,188C 152.022,188.561 152.355,189.228 152.5,190C 151.1,193.754 149.1,194.254 146.5,191.5C 148.569,188.427 151.236,186.094 154.5,184.5 Z"/></g>
<g><path style="opacity:1" fill="#5b1d23" d="M 178.5,172.5 C 179.167,173.167 179.833,173.833 180.5,174.5C 180.666,179.179 180.499,183.845 180,188.5C 177.863,190.306 178.03,191.64 180.5,192.5C 178.316,193.983 176.983,193.316 176.5,190.5C 178.356,184.729 179.022,178.729 178.5,172.5 Z"/></g>
<g><path style="opacity:1" fill="#b38254" d="M 157.5,173.5 C 157.663,175.857 157.497,178.19 157,180.5C 156.617,181.056 156.117,181.389 155.5,181.5C 154.127,181.343 152.793,181.51 151.5,182C 145.18,187.474 139.847,193.641 135.5,200.5C 132.573,196.233 129.24,192.233 125.5,188.5C 129.389,190.543 132.889,193.209 136,196.5C 140.47,190.961 142.97,184.628 143.5,177.5C 145.059,174.228 146.726,170.895 148.5,167.5C 147.451,165.403 146.451,163.403 145.5,161.5C 146.694,160.728 147.694,159.728 148.5,158.5C 149.708,157.766 151.041,157.433 152.5,157.5C 152.077,161.898 151.577,166.232 151,170.5C 152.789,168.135 154.956,166.468 157.5,165.5C 157.5,168.167 157.5,170.833 157.5,173.5 Z"/></g>
<g><path style="opacity:1" fill="#e0ae7c" d="M 107.5,161.5 C 108.5,161.5 109.5,161.5 110.5,161.5C 111.842,162.793 113.509,163.626 115.5,164C 122.167,164.333 128.833,164.667 135.5,165C 136.423,167.041 136.756,169.208 136.5,171.5C 137.978,171.238 139.311,171.571 140.5,172.5C 139.975,173.192 139.308,173.692 138.5,174C 140.881,174.223 142.547,175.39 143.5,177.5C 142.97,184.628 140.47,190.961 136,196.5C 132.889,193.209 129.389,190.543 125.5,188.5C 122.729,186.233 120.062,183.733 117.5,181C 111.176,180.833 106.509,178 103.5,172.5C 107.183,173.951 110.85,175.285 114.5,176.5C 117.882,176.324 121.215,175.824 124.5,175C 123.624,173.414 122.624,171.914 121.5,170.5C 115.459,169.159 110.126,166.492 105.5,162.5C 105.957,161.702 106.624,161.369 107.5,161.5 Z"/></g>
<g><path style="opacity:1" fill="#d29b61" d="M 129.5,159.5 C 131.857,159.337 134.19,159.503 136.5,160C 138.896,161.554 141.229,162.054 143.5,161.5C 144.167,161.5 144.833,161.5 145.5,161.5C 146.451,163.403 147.451,165.403 148.5,167.5C 146.726,170.895 145.059,174.228 143.5,177.5C 142.547,175.39 140.881,174.223 138.5,174C 139.308,173.692 139.975,173.192 140.5,172.5C 139.311,171.571 137.978,171.238 136.5,171.5C 136.756,169.208 136.423,167.041 135.5,165C 128.833,164.667 122.167,164.333 115.5,164C 113.509,163.626 111.842,162.793 110.5,161.5C 115.688,161.233 121.021,161.067 126.5,161C 127.737,160.768 128.737,160.268 129.5,159.5 Z"/></g>
<g><path style="opacity:1" fill="#c49d9c" d="M 60.5,160.5 C 68.028,172.698 77.3613,183.365 88.5,192.5C 88.4827,194.028 87.816,194.528 86.5,194C 76.4266,184.307 67.4266,173.807 59.5,162.5C 59.3284,161.508 59.6618,160.842 60.5,160.5 Z"/></g>
<g><path style="opacity:1" fill="#a6a896" d="M 135.5,219.5 C 140.123,218.408 141.956,220.075 141,224.5C 135.42,226.752 133.587,225.085 135.5,219.5 Z"/></g>
</svg>
